# xmcd
#
# Track frame offsets: 
#        150
#        8265
#        15909
#        22689
#        34616
#        50623
#        61647
#        74668
#        85150
#        93119
#        104649
#        114348
#        123963
#        134179
#        145342
#        154612
#        164553
#        176609
#
# Disc length: 2514 seconds
#
# Revision: 4
# Processed by: cddbd v1.5.2PL0 Copyright (c) Steve Scherf et al.
# Submitted via: ExactAudioCopy v0.95b4
#
DISCID=de09d012
DTITLE=Bluegrass Festival - Bill Monroe and his Bluegrass Boys and Eri
DTITLE=c Darling
DYEAR=1900
DGENRE=Bluegrass
TTITLE0=Cripple Creek
TTITLE1=One Dime Blues
TTITLE2=John Brown's Dream
TTITLE3=John Henry
TTITLE4=The Wagoner's Lad
TTITLE5=Poor Ellen Smith
TTITLE6=The Orange Blossom Special
TTITLE7=Uncle Pen
TTITLE8=Footprints in the Snow
TTITLE9=Bluegrass Breakdown
TTITLE10=I saw the Ligh
TTITLE11=Shady Grove
TTITLE12=Shenendoah Breakdoown
TTITLE13=Mule Skinner Blues
TTITLE14=Prison Song
TTITLE15=Blue Moon of Kentucky
TTITLE16=Can't You Hear Me Callin
TTITLE17=NINE POUND HAMMER
EXTD=ID3G: 2
EXTT0=
EXTT1=
EXTT2=
EXTT3=
EXTT4=
EXTT5=
EXTT6=
EXTT7=
EXTT8=
EXTT9=
EXTT10=
EXTT11=
EXTT12=
EXTT13=
EXTT14=
EXTT15=
EXTT16=
EXTT17=
PLAYORDER=
